{"title":"Svetlana abused by Max Hardcore (anal, throatfuck)","uid":10798866,"size":244913052,"categoryP":"porn","categoryS":"movie_clips","magnet":"?xt=urn:btih:1abac970c61d970d433d589464831fc34b5fab50&amp;dn=Svetlana+abused+by+Max+Hardcore+%28anal%2C+throatfuck%29&amp;tr=udp%3A%2F%2Ftracker.openbittorrent.com%3A80&amp;tr=udp%3A%2F%2Fopen.demonii.com%3A1337&amp;tr=udp%3A%2F%2Ftracker.coppersurfer.tk%3A6969&amp;tr=udp%3A%2F%2Fexodus.desync.com%3A6969","seeders":23,"leechers":2,"uploader":"ThousandPeers","files":-1,"time":1408320404,"description":"Format                                   : Windows Media\nFile size                                : 122 MiB\nDuration                                 : 33mn 39s\nOverall bit rate mode                    : Constant\nOverall bit rate                         : 507 Kbps\nMaximum Overall bit rate                 : 512 Kbps\nMovie name                               : Plumber Ivy\nPerformer                                : Sleepslave.com\nEncoded date                             : UTC 2008-06-25 02:59:10.913\nCopyright                                : Sleepslave.com\n\nVideo\nID                                       : 2\nFormat                                   : VC-1\nFormat profile                           : MP@LL\nCodec ID                                 : WMV3\nCodec ID/Info                            : Windows Media Video 9\nCodec ID/Hint                            : WMV3\nDescription of the codec                 : Windows Media Video 9\nDuration                                 : 33mn 39s\nBit rate mode                            : Constant\nBit rate                                 : 455 Kbps\nWidth                                    : 320 pixels\nHeight                                   : 240 pixels\nDisplay aspect ratio                     : 4:3\nFrame rate                               : 29.970 fps\nBit depth                                : 8 bits\nScan type                                : Progressive\nCompression mode                         : Lossy\nBits/(Pixel*Frame)                       : 0.198\nStream size                              : 110 MiB (90%)\n\nAudio\nID                                       : 1\nFormat                                   : WMA\nFormat version                           : Version 2\nCodec ID                                 : 161\nCodec ID/Info                            : Windows Media Audio\nDescription of the codec                 : Windows Media Audio 9.2 -  48 kbps, 44 kHz, stereo (A/V) 1-pass CBR\nDuration                                 : 33mn 39s\nBit rate mode                            : Constant\nBit rate                                 : 48.0 Kbps\nChannel(s)                               : 2 channels\nSampling rate                            : 44.1 KHz\nBit depth                                : 16 bits\nStream size                              : 11.6 MiB (9%)\n","torrent":{"xt":"urn:btih:1abac970c61d970d433d589464831fc34b5fab50","amp;dn":"Svetlana+abused+by+Max+Hardcore+%28anal%2C+throatfuck%29","amp;tr":["udp%3A%2F%2Ftracker.openbittorrent.com%3A80","udp%3A%2F%2Fopen.demonii.com%3A1337","udp%3A%2F%2Ftracker.coppersurfer.tk%3A6969","udp%3A%2F%2Fexodus.desync.com%3A6969"],"infoHash":"1abac970c61d970d433d589464831fc34b5fab50","infoHashBuffer":{"type":"Buffer","data":[26,186,201,112,198,29,151,13,67,61,88,148,100,131,31,195,75,95,171,80]},"announce":[],"urlList":[]}}